# xmcd
#
# Track frame offsets: 
#        180
#        30135
#        46092
#        78975
#        100944
#        144936
#        182634
#        235326
#
# Disc length: 3395 seconds
#
# Revision: 0
# Processed by: cddbd v1.5.2PL0 Copyright (c) Steve Scherf et al.
# Submitted via: ExactAudioCopy v1.0b3
#
DISCID=530d4108
DTITLE=Ustad Mohammed Umar - Umar, Mohammed - spielt Robab
DYEAR=1900
DGENRE=A Cappella
TTITLE0=Rag Ahir Bairav
TTITLE1=Volksmelodie
TTITLE2=Rag Bhopali
TTITLE3=Naghma Tilang
TTITLE4=Rag Purya Kalyan
TTITLE5=Rag Pahari
TTITLE6=Robab und Tambur (Volksmelodie)
TTITLE7=Rag Bhairavi
EXTD=
EXTT0=
EXTT1=
EXTT2=
EXTT3=
EXTT4=
EXTT5=
EXTT6=
EXTT7=
PLAYORDER=
